<svg viewBox="0 0 200 200" xmlns="http://www.w3.org/2000/svg">
  <!-- Shield with S and wings -->
  <g fill="none" stroke="currentColor" strokeWidth="8" strokeLinecap="round" strokeLinejoin="round">
    <!-- Left Wing -->
    <path d="M 50 60 Q 40 50 35 40 Q 30 30 40 20 Q 50 15 60 25 Q 65 35 70 45"/>

    <!-- Right Wing -->
    <path d="M 150 60 Q 160 50 165 40 Q 170 30 160 20 Q 150 15 140 25 Q 135 35 130 45"/>

    <!-- Shield Left -->
    <path d="M 55 70 L 50 100 Q 50 140 100 170 Q 100 170 100 170"/>

    <!-- Shield Right -->
    <path d="M 145 70 L 150 100 Q 150 140 100 170 Q 100 170 100 170"/>

    <!-- Shield Top -->
    <path d="M 55 70 Q 70 65 100 65 Q 130 65 145 70"/>

    <!-- Center Circle -->
    <circle cx="100" cy="100" r="35"/>

    <!-- S Letter -->
    <path d="M 95 85 Q 90 85 90 90 Q 90 95 100 95 Q 105 95 105 100 Q 105 110 90 110 Q 85 110 85 115"
          fill="none" stroke="currentColor" strokeWidth="6"/>
  </g>
</svg>
